<svg version="1.2" xmlns="http://www.w3.org/2000/svg" viewBox="0 0 12 12" width="12" height="12"><defs><clipPath clipPathUnits="userSpaceOnUse" id="cp1"><path d="m-845-196h960v1485h-960z"/></clipPath></defs><style>.A{opacity:.7;fill:#fff;stroke:#fff}</style><g clip-path="url(#cp1)"><path class="A" d="m11 6c0 0.3-0.3 0.6-0.6 0.6h-3.4v3.4c0 0.3-0.2 0.5-0.5 0.5q-0.3 0-0.4-0.1q-0.2-0.2-0.2-0.4v-3.4h-3.4q-0.2 0-0.4-0.2q-0.1-0.1-0.1-0.4c0-0.3 0.2-0.5 0.5-0.5h3.4v-3.4c0-0.3 0.3-0.6 0.6-0.6c0.3 0 0.5 0.3 0.5 0.6v3.4h3.4c0.3 0 0.6 0.2 0.6 0.5z"/></g></svg>