<svg version="1.2" xmlns="http://www.w3.org/2000/svg" viewBox="0 0 19 13" width="19" height="13"><defs><clipPath clipPathUnits="userSpaceOnUse" id="cp1"><path d="m-124-1197h960v1485h-960z"/></clipPath></defs><style>.A{opacity:.4;fill:#fff}</style><g clip-path="url(#cp1)"><path fill-rule="evenodd" class="A" d="m17.1 0.5q0.5 0 0.9 0.4q0.4 0.3 0.4 0.8v9.2q0 0.5-0.4 0.9q-0.4 0.3-0.9 0.3h-15.8q-0.6 0-0.9-0.3q-0.4-0.4-0.4-0.9v-9.2q0-0.5 0.4-0.8q0.3-0.4 0.9-0.4zm-15.9 1q-0.1 0-0.2 0q0 0.1 0 0.2v1.7h16.3v-1.7q0-0.1-0.1-0.2q0 0-0.1 0zm15.8 9.7q0.2 0 0.2-0.1q0.1-0.1 0.1-0.2v-4.6h-16.4v4.6q0 0.1 0.1 0.2q0 0.1 0.2 0.1zm-15.2-1v-1h2.1v1zm3 0v-1h3v1z"/></g></svg>