<svg version="1.2" xmlns="http://www.w3.org/2000/svg" viewBox="0 0 21 31" width="21" height="31"><defs><clipPath clipPathUnits="userSpaceOnUse" id="cp1"><path d="m-809-32h960v1485h-960z"/></clipPath></defs><style>.A{fill:none;stroke:#fff;stroke-linecap:round;stroke-width:3}.B{fill:#fff}</style><g clip-path="url(#cp1)"><path class="A" d="m15.5 2.4l2.7 3.5v12.4c0 0.9-0.8 1.7-1.8 1.7h-12.4c-1 0-1.8-0.8-1.8-1.7v-12.4l2.7-3.5z"/><path class="A" d="m2.2 5.4h16"/><path class="A" d="m13.2 9.7c0 1.7-1.3 3-3 3c-1.6 0-3-1.3-3-3"/><path class="B" d="m14.7 30.9h-9c-0.6 0-0.9-0.7-0.5-1.2l4.5-4.5c0.3-0.3 0.7-0.3 1 0l4.5 4.5c0.5 0.5 0.2 1.2-0.5 1.2z"/></g></svg>